{"title":"A Farewell to Arms  (War Drama 1957)  Rock Hudson, Jennifer Jone","uid":9516695,"size":718263350,"categoryP":"video","categoryS":"movies","magnet":"?xt=urn:btih:37e0f26a13968676d2e464b17efef6269948eb62&amp;dn=A+Farewell+to+Arms++%28War+Drama+1957%29++Rock+Hudson%2C+Jennifer+Jone&amp;tr=udp%3A%2F%2Ftracker.openbittorrent.com%3A80&amp;tr=udp%3A%2F%2Fopen.demonii.com%3A1337&amp;tr=udp%3A%2F%2Ftracker.coppersurfer.tk%3A6969&amp;tr=udp%3A%2F%2Fexodus.desync.com%3A6969","seeders":0,"leechers":1,"uploader":"BurtonW","files":7,"time":1390535662,"description":" &lt;a href=&quot;http://www.imdb.com/title/tt0050379/?ref_=nv_sr_1&quot; rel=&quot;nofollow&quot; target=&quot;_NEW&quot;&gt;http://www.imdb.com/title/tt0050379/?ref_=nv_sr_1&lt;/a&gt;\n\n\nA very good quality film.\n\n\n.srt file at this link:  &lt;a href=&quot; http://bayfiles.net/file/156w9/FNX6zN/A_Farewell_to_Arms_%28War_Drama_1957%29_Rock_Hudson%2C_Jennifer_Jones_%26_Vittorio_De_Sica_Eng.srt&quot; rel=&quot;nofollow&quot; target=&quot;_NEW&quot;&gt; http://bayfiles.net/file/156w9/FNX6zN/A_Farewell_to_Arms_%28War_Drama_1957%29_Rock_Hudson%2C_Jennifer_Jones_%26_Vittorio_De_Sica_Eng.srt&lt;/a&gt;\n\nTechnical info:\n\nGeneral:\n\nComplete name                  : A Farewell to Arms  (War Drama 1957)  Rock Hudson, Jennifer Jones &amp; Vittorio De Sica.mp4\n\nFormat                         : MPEG-4\nFormat profile                 : Base Media / Version 2\nCodec ID                       : mp42\nFile size                      : 685 MiB\nDuration                       : 2h 32mn\nOverall bit rate mode          : Variable\nOverall bit rate               : 629 Kbps\nEncoded date                   : UTC 2014-01-23 22:03:08\nTagged date                    : UTC 2014-01-24 01:56:22\n\nVideo:\n\nID                             : 1\nFormat                         : AVC\nFormat/Info                    : Advanced Video Codec\nFormat profile                 : &lt;a class=&quot;__cf_email__&quot; href=&quot;/cdn-cgi/l/email-protection&quot; data-cfemail=&quot;a0edc1c9cee0ec948e90&quot;&gt;[email&amp;#160;protected]&lt;/a&gt;&lt;script cf-hash='f9e31' type=&quot;text/javascript&quot;&gt;\n/* &lt;![CDATA[ */!function(){try{var t=&quot;currentScript&quot;in document?document.currentScript:function(){for(var t=document.getElementsByTagName(&quot;script&quot;),e=t.length;e--;)if(t[e].getAttribute(&quot;cf-hash&quot;))return t[e]}();if(t&amp;&amp;t.previousSibling){var e,r,n,i,c=t.previousSibling,a=c.getAttribute(&quot;data-cfemail&quot;);if(a){for(e=&quot;&quot;,r=parseInt(a.substr(0,2),16),n=2;a.length-n;n+=2)i=parseInt(a.substr(n,2),16)^r,e+=String.fromCharCode(i);e=document.createTextNode(e),c.parentNode.replaceChild(e,c)}}}catch(u){}}();/* ]]&gt; */&lt;/script&gt;\nFormat settings, CABAC         : Yes\nFormat settings, ReFrames      : 8 frames\nCodec ID                       : avc1\nCodec ID/Info                  : Advanced Video Coding\nDuration                       : 2h 32mn\nBit rate mode                  : Variable\nBit rate                       : 464 Kbps\nWidth                          : 720 pixels\nHeight                         : 304 pixels\nDisplay aspect ratio           : 2.35:1\nFrame rate mode                : Variable\nFrame rate                     : 23.976 fps\nMinimum frame rate             : 23.810 fps\nMaximum frame rate             : 24.390 fps\nColor space                    : YUV\nChroma subsampling             : 4:2:0\nBit depth                      : 8 bits\nScan type                      : Progressive\nBits/(Pixel*Frame)             : 0.088\nStream size                    : 505 MiB (74%)\nWriting library                : x264 core 130 r2273 b3065e6\nEncoding settings              : Deleted\nEncoded date                   : UTC 2014-01-23 22:03:08\nTagged date                    : UTC 2014-01-24 01:56:22\nColor primaries                : BT.709\nTransfer characteristics       : BT.709\nMatrix coefficients            : BT.709\n\nAudio:\n\nID                             : 2\nFormat                         : AAC\nFormat/Info                    : Advanced Audio Codec\nFormat profile                 : LC\nCodec ID                       : 40\nDuration                       : 2h 32mn\nBit rate mode                  : Variable\nBit rate                       : 160 Kbps\nMaximum bit rate               : 186 Kbps\nChannel(s)                     : 2 channels\nChannel positions              : Front: L R\nSampling rate                  : 48.0 KHz\nCompression mode               : Lossy\nDelay relative to video        : 83ms\nStream size                    : 174 MiB (25%)\nLanguage                       : English\nEncoded date                   : UTC 2014-01-23 22:03:08\nTagged date                    : UTC 2014-01-24 01:56:21\n","torrent":{"xt":"urn:btih:37e0f26a13968676d2e464b17efef6269948eb62","amp;dn":"A+Farewell+to+Arms++%28War+Drama+1957%29++Rock+Hudson%2C+Jennifer+Jone","amp;tr":["udp%3A%2F%2Ftracker.openbittorrent.com%3A80","udp%3A%2F%2Fopen.demonii.com%3A1337","udp%3A%2F%2Ftracker.coppersurfer.tk%3A6969","udp%3A%2F%2Fexodus.desync.com%3A6969"],"infoHash":"37e0f26a13968676d2e464b17efef6269948eb62","infoHashBuffer":{"type":"Buffer","data":[55,224,242,106,19,150,134,118,210,228,100,177,126,254,246,38,153,72,235,98]},"announce":[],"urlList":[]}}